# xmcd
#
# Track frame offsets:
#	150
#	12188
#	28822
#	43225
#	55997
#	70180
#	81459
#	95889
#	109919
#	124634
#	138380
#	158369
#	173804
#	185950
#	197686
#
# Disc length: 2795 seconds
#
# Revision: 1
# Processed by: cddbd v1.5.2PL0 Copyright (c) Steve Scherf et al.
# Submitted via: audiograbber 1.83.01
#
DISCID=d70ae90f
DTITLE=Verschiedene - Stand by your Man 
DYEAR=1900
DGENRE=Country
TTITLE0=Stan by your manTrack  
TTITLE1=Summerwine
TTITLE2=Rhinestone Cowboy
TTITLE3=Gentle On my Wind
TTITLE4=Orange blossom Speciale
TTITLE5=King of the Road
TTITLE6=Somewhere in the Country
TTITLE7=Guantanamera
TTITLE8=The Banks of the Ohio
TTITLE9=Lover please
TTITLE10=City of New Orleans
TTITLE11=I Need more of You
TTITLE12=Heartaches by the Number
TTITLE13=The Happiest Girl in the USA
TTITLE14=High Noon 
EXTD=
EXTT0=
EXTT1=
EXTT2=
EXTT3=
EXTT4=
EXTT5=
EXTT6=
EXTT7=
EXTT8=
EXTT9=
EXTT10=
EXTT11=
EXTT12=
EXTT13=
EXTT14=
PLAYORDER=
